<svg xmlns="http://www.w3.org/2000/svg" version="1.1" width="600px" height="600px" viewBox="0 0 200 200" style="overflow:hidden!important;"><g id="svga-group-wrapper"><g id="svga-group-backs-single"></g><g id="svga-group-humanwrap-move" transform="matrix(1,0,0,1,0,0)"><g id="svga-group-humanwrap"><g id="svga-group-hair-back-move" transform="matrix(1,0,0,1,0,0)"><g id="svga-group-hair-back"></g></g><g id="svga-group-humanbody-back"><path id="SvgjsPath10495" d="M166.5 181.1c-10.9-6.6-27.6-8.4-35-12.1-4.9-2.5-9.1-4.7-8.9-17.8s1.9-42.4 1.9-42.4H75.4s1.6 29.4 1.9 42.4-4.2 15.6-8.9 17.8c-7.4 3.5-24.1 5.4-35 12.1-10.8 6.6-10 18.9-10 18.9v19.7h153.3V200c-.1 0 .7-12.3-10.2-18.9z" fill="#a4582e" stroke-width="none" opacity="1"></path></g><g id="svga-group-chinshadow-single"><path id="SvgjsPath10491" d="M77.2 155.9c6.9 8.3 13.3 15.4 17.2 14.8 0 0 4.4-.9 5.6-.9s5.6 1 5.6 1c3.9.6 10.2-6.5 17.2-14.8-.1-1.4-.2-3-.2-4.8.2-13.1 1.9-42.4 1.9-42.4H75.4s1.6 29.4 1.9 42.4c0 1.7 0 3.3-.1 4.7z" fill="#85360b" stroke-width="none" opacity="0.65"></path></g><g id="svga-group-humanbody-front"><path id="SvgjsPath10496" d="M78.7 156.8c.5 4.8 1.7 9.4 3.1 13.9.8 2.3 1.6 4.6 2.6 6.9.8 2 1.7 4.2 3.1 5.9.3.4 1 0 .9-.5-.5-2.2-1.6-4.3-2.4-6.4-.9-2.2-1.7-4.4-2.5-6.6-1.5-4.4-2.8-8.9-4.1-13.3-.2-.4-.8-.3-.7.1zm41.3-1c-1.3 8.2-3.9 16.1-5.4 24.2-.1.4.4.5.6.2 3.1-7.7 4.1-16.1 5.1-24.3-.1-.2-.3-.2-.3-.1zm-25.8 11.9c-.9 3.6 1.9 8.6 6.2 7.6.5-.1.4-.8 0-1-1.4-.5-2.9-.9-3.9-2.1-1.1-1.2-1.5-2.9-1.4-4.5 0-.4-.8-.5-.9 0z" fill="#85360b" stroke-width="none" opacity="1"></path><path id="SvgjsPath10497" d="M177.3 219.7c-.1-6.6-.3-13.1-.3-19.7l-.3-.3c.1 0 .1 0 .2.1s.1.2.1.1v-1.4c0-.5-.1-.9-.1-1.4-.1-.9-.3-1.9-.5-2.8-.5-1.8-1.1-3.6-2-5.3-1.7-3.4-4.4-6.2-7.7-8.1-3.6-2.2-7.6-3.8-11.6-5.1-4-1.3-8.1-2.4-12.1-3.5-4-1.2-8.1-2.2-11.8-4.2-1.9-1-3.6-2.1-4.8-3.6-1.2-1.6-1.9-3.5-2.3-5.5-.8-4-.4-8.2-.3-12.4l.7-12.6 1.5-25.2.1-1.4h-1.4c-8.2 0-16.4 0-24.6.1l-24.6.3h-.9l.1.9c.8 11.9 1.6 23.8 2.1 35.7.1 3 .3 6 .2 8.9-.1 2.9-.4 5.9-1.6 8.6-.6 1.3-1.4 2.5-2.4 3.5s-2.3 1.8-3.6 2.4c-2.6 1.3-5.4 2.2-8.3 3-5.8 1.5-11.6 2.8-17.3 4.7-2.8.9-5.7 2-8.4 3.4-1.3.7-2.7 1.4-4 2.4-1.3.9-2.4 1.9-3.5 3.1-2.1 2.3-3.6 5.2-4.5 8.1-.5 1.5-.8 3-1 4.6-.1.8-.1 1.6-.1 2.4v2.3l-.2 17.9v1.3h1.4l38.3.2c12.8.1 25.5.1 38.3 0 12.8-.1 25.6-.1 38.3-.3 12.8-.2 25.6-.5 38.3-.7h.6v-.5zm-77.2-1.6H61.8l-37 .2-.1-16.6v-2.2c0-.7 0-1.4.1-2.1.1-1.4.4-2.8.8-4.2.8-2.7 2.1-5.3 3.9-7.5.9-1.1 2-2.1 3.1-2.9 1.1-.9 2.4-1.6 3.7-2.3 2.6-1.4 5.3-2.5 8.1-3.5 5.6-2 11.4-3.4 17.1-5.1 2.9-.8 5.8-1.7 8.5-3.1 1.3-.7 2.7-1.5 3.8-2.6 1.1-1.1 2-2.4 2.6-3.9 1.2-2.9 1.5-5.9 1.6-8.9 0-3-.1-6-.2-9l-1.3-34.8 23.5.4c7.7.1 15.4.1 23.1.1-.4 7.9-.8 15.9-1.1 23.8-.2 4.2-.2 8.4-.3 12.6 0 4.2-.2 8.5.8 12.8.5 2.1 1.3 4.2 2.8 6 1.4 1.7 3.4 2.9 5.3 3.8 3.9 1.9 8 2.8 12.1 3.8s8.2 2 12.2 3.3c4 1.3 7.9 2.8 11.5 5 3.2 1.9 5.8 4.7 7.5 8 .9 1.6 1.5 3.4 1.9 5.2.2.9.4 1.8.4 2.7.1.5.1.9.1 1.4V200l-.3 19c-12.6-.2-25.1-.5-37.7-.7-12.7-.1-25.5-.1-38.2-.2z" fill="#762a00" stroke-width="none" opacity="1"></path></g><g id="svga-group-clothes-single"><path id="SvgjsPath11129" d="M100.8 184.4c-1.1-3-8.2-7.8-13.2-10.6s-7-4.9-10-8.8c-1.8-3.6-1-8.9-1-8.9-.1-4.7-.6-9.5-.9-14.7-8.2-1.1-13.1 3.7-14 4.6-6.5 6.3-3.1 8.5-5.7 11.5-9.2 2.1-7.1 14.2-10.7 15-8.7 1.9-21.2 7-24.2 21 0 0-1.6 9.2-1.6 26.7h160.7c0-17.5-1.6-26.7-1.6-26.7-3.2-15.2-17.6-19-26.1-21.4-1.4-.6.2-5.2-2.5-10.5-1.4-2.7-3.9-6.5-9.3-7.8 0 0-1.2-6.6-5.4-9.9-4.2-3.3-11.2-2.5-11.2-2.5s-.3 14.1-.3 16.1c0 3.2-.2 4.9-1.6 6.6s-4.4 3.9-6.9 7.5-10.1 7.5-11.7 9c-1.4 1.4-2.8 3.8-2.8 3.8z" fill="#386e77" stroke-width="none" opacity="1"></path><path id="SvgjsPath11130" d="M105.6 187.4c-.6.6-1.7 3.4-1.8 5.7s1.8 11.5 2.1 13.4-1 7.4-1 8.5 2.8 2.8 3.1 1.7c.3-1.1 1.2-8.4.2-10.9s-2.2-10.1-2.2-11.6 1.1-5.6 1.6-6.5c0 0 .2-.8-.6-.9-.8-.1-1.4.6-1.4.6z" fill="#d6d6d6" stroke-width="none" opacity="1"></path><path id="SvgjsPath11131" d="m95.6 186.8.1-.2s1.8-1.3 1.9.9c0 0-1.2 2.8-1.2 4.8s2.2 11.9 2.5 14.1-2.7 10.4-3.1 10.5-2.1-.9-2.6-1.3c-.4-.4 2.5-6.9 2.8-9.9.3-2.9-.4-8.7-1.2-12.2-.8-3.5.4-5.9.8-6.6v-.1z" fill="#d6d6d6" stroke-width="none" opacity="1"></path><path id="SvgjsPath11132" d="M181.4 204.3c-.2-2.6-.4-5.2-.7-7.9l-.2-2-.1-1v-.3c0-.1 0-.2-.1-.3l-.1-.5c-.3-1.4-.7-2.7-1.2-4-1.1-2.6-2.6-5-4.4-7.1-1.9-2.1-4.1-3.8-6.5-5.2-4.6-2.7-9.6-4.2-14.5-5.5v-.1c-.1-.4-.1-.9-.1-1.4-.1-1-.1-2-.3-3.1-.3-2.1-1.1-4.2-2.1-6-1-1.8-2.4-3.6-4.1-4.9-1.5-1.2-3.2-2-5-2.6-.4-1.4-.8-2.8-1.4-4.1-.7-1.6-1.6-3.1-2.9-4.4-1.3-1.4-3.4-2.5-5-3-5.1-1.2-8.6-.4-8.6-.4s-1.2 9.6-2.9 22.5c0 0-3.9 4.9-5.3 6.8-.4.4-.7 1-1.1 1.4-.2.2-.3.4-.5.6l-.6.6c-.8.8-1.7 1.5-2.6 2.2-1.8 1.4-3.8 2.7-5.7 4-.5.3-1 .7-1.4 1.1-.5.4-.8.9-1.2 1.3-.4.5-.7.9-1 1.4l-.5.8-.2.4-.1.1-.2-.3-.3-.6c-.2-.4-.5-.7-.8-1l-1.8-1.8c-1.3-1.1-2.6-2.2-4-3.2s-2.8-1.9-4.2-2.8c-1.4-.9-2.9-1.7-4.2-2.7-2.7-2-4.5-4.6-6.6-7.1-1.1-1.3-1.7-3.5-1.9-4.9-.1-1 .6-10.8-.2-17.9 0-.4-.7-.9-5.6-1.1-5 .1-8.8 3.3-10.4 4.9-1.5 1.6-3.1 3.3-3.9 5.6-.4 1.1-.5 2.4-.7 3.4-.1.9-.3 1.4-.7 1.9-1.7.4-3.3 1.3-4.5 2.5-1.4 1.4-2.3 3-2.9 4.7-.7 1.7-1.1 3.4-1.5 4.9-.2.8-.5 1.5-.8 2.1-.1.3-.3.4-.4.5 0 0-.1 0-.1.1l-.6.1c-3.3.8-6.6 1.9-9.8 3.4-3.1 1.6-6 3.6-8.4 6.2-2.4 2.6-4.2 5.7-5.3 9-.3.8-.5 1.7-.7 2.5l-.1.7c0 .1 0 .2-.1.4v.3l-.2 1.3c-.2 1.7-.3 3.4-.5 5-.5 6.7-.6 13.4-.5 20.1 0 .4.1 1.3.5 1.3 13.4-.2 160.9.2 160.9.2.8 0 1.5-.7 1.5-1.5-.1-5-.2-10.3-.6-15.6zm-27.8-33.4zm-28.8-26.1c1 .6 4.7 2.5 6 5.1.1.8.2 1.8 0 2.6s-.6 1.5-1.1 2.3c-2.1 2.6-6.1 6.3-6.5 6.8 5.1-8.8 1.6-16.8 1.6-16.8zm-50.4 17.7c.9 1.4 4 4.3 5 5.5-.4-.3-3.9-3-4.3-3.2-1.2-.8-1.8-1.7-2.7-2.9-1.8-2.2-2.7-5.1-3.4-8-.3-1.4-.6-2.9.3-3.8 2.2-1.5 5.9-2 6.1-2.1.2 2.7-3.2 5.8-3.1 8.5-.1.3-.1.4-.1.7v.8c.1.5.2 1 .3 1.4.3.7 1.4 2.3 1.9 3.1zM48 171.8c.5-.9.8-1.8 1-2.6.5-1.7.8-3.2 1.4-4.7.5-1.5 1.3-2.8 2.3-3.8s2.3-1.7 3.7-2c.2 0 .3-.1.5-.2.1 1.1.2 2.2.4 3.3.3 1.7.7 3.4 1.4 5 .3.9.8 1.6 1.2 2.4.5.7 1 1.5 1.5 2.2 2.3 2.8 5.1 4.8 8.2 6.4 3.1 1.6 6.3 2.8 9.7 3.4-3.1-1.4-6.1-3-8.9-4.8-1.4-.9-2.8-1.8-4-2.9-1.3-1.1-2.5-2.2-3.4-3.4-.5-.6-1-1.3-1.4-1.9-.4-.7-.8-1.4-1.1-2.1-.7-1.4-1.1-3.1-1.6-4.6-.4-1.4-.7-2.9-.9-4.3.1-.2-.8-5.1 4.4-9.9 1.4-1.5 3-2.8 4.6-3.8 4.2-2.4 6.8-1.4 8.1-1.2.1 2 .2 3.1.3 5.1-.3.1-4.2 1-4.5 1.1-.7.3-1.5.5-2.2 1.1-.7.5-1.1 1.5-1.2 2.3-.1.9 0 1.7.1 2.5.4 3.1 1.3 6.3 3.3 8.9 1 1.3 2.3 2.4 3.6 3.2l3.9 2.4c1.3.8 2.6 1.5 3.9 2.2.8.6 1.5 1.2 2.3 1.7 1.4 1 2.9 1.8 4.4 2.6 1.4.8 2.9 1.7 4.3 2.6s2.8 1.9 4.1 2.9c.7.5 1.3 1.1 1.9 1.7.3.3.6.6.8.9.1.2.2.3.3.5l.2.3c.1.1.2.3.3.4 0 0 .1 0 .2-.1v-.1l.1-.1.1-.2.2-.4.5-.7c.3-.5.7-.9 1.1-1.4.4-.4.8-.9 1.2-1.2.4-.3.9-.7 1.4-1 2-1.2 4-2.4 5.9-3.8 1-.7 1.9-1.4 2.8-2.2.2-.2.4-.4.7-.6.2-.2.4-.4.6-.7.4-.5.7-.9 1.1-1.4 1.5-1.7 3.2-3.3 4.9-4.9l2.6-2.4c.7-.7 3.2-2.8 3.6-3.2 1.5-1.3 2.8-2.7 3.8-4.5 1-1.8.9-4 .2-6.1-1.1-2.4-5.6-5-6.9-5.8l-.1-2.5c.2.1 4.4-.9 8.1 1.4 2.5 1.6 4.6 5.3 5.3 6.7.6 1.4 1.1 2.9 1.4 4.4.1.5.5.9 1 1.1.1 0 .1 0 .2.1-.2 2-.6 4-1.4 5.8-.6 1.5-1.3 2.9-2.3 4-1 1.2-2.2 2.3-3.4 3.3-.6.5-1.2 1-1.8 1.6l-1.9 1.5c-1.3 1-2.6 2-3.9 2.9-2.6 1.9-5.3 3.8-7.9 5.8 3.1-1.3 6-2.8 8.8-4.5 2.8-1.7 5.6-3.6 8.1-5.8.6-.6 1.3-1.1 1.8-1.7l.9-.9.8-1c1.1-1.4 1.8-3 2.3-4.7.6-2 .8-4 .7-6.1 1.4.5 2.6 1.1 3.7 2.1 1.4 1.1 2.4 2.6 3.3 4.2.9 1.6 1.5 3.3 1.7 5.1.1.9.2 1.8.2 2.8 0 .5 0 1 .1 1.6 0 .3.1.6.2 1.1.1.2.2.5.4.7l.1.1-1.4 1.4c-.9.8-1.9 1.6-2.8 2.4-1.9 1.6-3.9 3.1-5.9 4.5-2 1.4-4 2.9-6.1 4-1.1.6-2.1 1.1-3.2 1.5-1.1.4-2.3.8-3.5 1.1-2.4.7-4.8 1.3-7.2 1.8-2.4.6-4.8 1.1-7.2 1.5l-3.6.6c-.6.1-1.2.1-1.7.1-.6 0-1.1-.2-1.6-.4l-.2-.1c.3-1.1.6-2.3 1-3.3.1-.2 0-.5-.1-.7s-.4-.3-.7-.3c-.5 0-.9.3-1.2.6.3-.4.8-.6 1.2-.6.2 0 .5.1.6.3.1.2.2.4.1.7-.5 1.2-.8 2.4-1.2 3.7-.3 1.2-.6 2.6-.4 3.9.2 2.6.6 5.1 1.1 7.7.1.6.3 1.3.4 1.9l.3.9c.1.3.2.6.2.9.2 1.2.2 2.5.2 3.8-.1 1.3-.2 2.6-.3 3.8-.1.6-.2 1.3-.3 1.9 0 .1-.1.3-.1.4-.1 0-.4 0-.6-.1-.5-.2-1-.6-1.3-1-.1-.1-.1-.2-.2-.3v-.3c0-.3.1-.6.1-.9.2-1.3.4-2.5.6-3.8.1-.6.2-1.3.2-1.9 0-.6 0-1.4-.1-2l-.8-3.8c-.5-2.5-1.1-5.1-1.4-7.6-.1-.6-.1-1.3-.1-1.9 0-.5.1-.9.2-1.4 0 0 .1-.4.1-.5.2-.6.3-1.2.6-1.9-.2.6-.4 1.2-.6 1.9 0 .1-.1.3-.1.4-1-.6-2.1-.9-3.3-1.1-1.3-.2-2.5-.3-3.8-.5.2-.8.4-1.5.7-2.2 0-.2-.1-.5-.2-.7s-.2-.4-.5-.6c-.5-.2-1 0-1.4.3.4-.2.9-.4 1.3-.2s.5.8.5 1.2c-.5 1.2-1 2.4-1.2 3.8-.1.6-.2 1.4-.1 2 .1.7.2 1.3.3 2 .4 2.6.9 5.2 1.4 7.8l.3 1.9c.1.6.2 1.3.2 1.9-.1 1.2-.4 2.5-.8 3.7-.4 1.2-.8 2.5-1.2 3.7-.2.6-.5 1.2-.7 1.8-.1.1-.1.2-.2.4-.2-.1-.4-.1-.7-.3-.3-.1-.6-.3-.8-.5-.1-.1-.2-.2-.4-.3l-.1-.1c0-.2.1-.5.2-.8l.3-.9 1.3-3.7c.4-1.3.8-2.5 1-3.9.2-1.4.1-2.7 0-4-.2-2.6-.7-5.2-1.2-7.8-.6-1.8-.6-3.9-.1-5.7h.1s0-.1-.1-.1c.2-.6.4-1.2.7-1.8-.3.5-.6 1.1-.8 1.7-.5-.6-.8-1.4-.6-1.9.2-.6.8-1 1.6-.9.7 0 1.4.4 2 .9.3.3.5.6.6 1 .1.3-.1.7-.5 1 .2 0 .5-.1.7-.3s.3-.5.3-.7c0-.5-.2-1-.5-1.4-.6-.8-1.5-1.4-2.5-1.5-.5 0-1.1.1-1.6.4s-.8.8-.8 1.4c-.1 1.1.6 1.8 1.4 2.2-.1.4-.2.7-.3 1.1l-5.5-.7c-2.6-.4-5.2-.6-7.8-1-2.6-.4-5.2-.8-7.7-1.3-1.3-.2-2.5-.5-3.7-.9-1.2-.3-2.4-.9-3.6-1.4-2.4-1-4.7-2.3-6.9-3.5-2.3-1.3-4.5-2.6-6.7-4-1.1-.7-2.2-1.4-3.2-2.2l-1.5-1.2-.6-.6c-.1-1 .1-1.3.3-1.6zm52 47.5-20.1.2-20.1.1c-13.2.1-26.3 0-39.5-.2.1-6.4.4-12.9 1.1-19.3.2-1.6.4-3.3.6-4.9l.2-1.2v-.3c0-.1 0-.2.1-.3l.1-.6c.2-.8.4-1.5.7-2.3 1.1-3 2.8-5.7 5-8s4.9-4.1 7.8-5.5c2.9-1.4 6-2.5 9.1-3.2l.6-.1c.4-.1.7-.2 1-.5.2-.1.3-.2.4-.4.5.8 1.2 1.4 1.9 2.1 1 .9 2 1.8 3 2.6 2.1 1.6 4.2 3.1 6.5 4.6 2.2 1.4 4.5 2.7 6.9 3.9 1.2.6 2.4 1.1 3.8 1.5 1.3.4 2.6.7 3.9 1 5.2 1 10.4 1.6 15.7 1.9 2.2.1 3.4.2 5.5.2-.1 1.2 0 2.5.2 3.7.5 2.6.8 5.2.9 7.8.1 1.3.1 2.6-.1 3.9-.2 1.2-.6 2.5-1 3.7l-1.3 3.7c-.1.3-.2.6-.3 1-.1.3-.2.6-.2 1.1v.3c0 .1.1.2.1.2l.1.1c.1.1.2.1.2.2.1.1.3.2.4.3.3.2.6.4.9.5.3.2.6.3 1.1.4h.4c.2-.1.2-.1.3-.2.1-.1.2-.2.2-.3.1-.2.2-.3.2-.5.3-.6.5-1.2.7-1.9.4-1.2.8-2.5 1.2-3.8.3-1.3.7-2.6.8-4 0-.8-.2-1.4-.3-2-.1-.6-.2-1.3-.4-1.9-.5-2.6-1.1-5.1-1.6-7.7-.1-.6-.2-1.3-.3-1.9-.1-.6-.1-1.3 0-1.9 0-.2.1-.4.1-.6 2.4.1 4.9-.1 7.2.7-.1.5-.2.9-.2 1.4-.1.6 0 1.3.1 1.9.3 2.6.7 5.1 1.1 7.7l.6 3.8c.2 1.2-.1 2.5-.3 3.7l-.7 3.8c-.1.3-.1.6-.1 1 0 .1 0 .5.1.7.1.2.2.4.3.5.5.6 1.1 1 1.7 1.3.3.1.7.3 1.3.2.3-.1.6-.4.7-.6.1-.2.1-.4.1-.5.1-.7.2-1.3.3-2 .2-1.3.2-2.6.3-3.9 0-1.3 0-2.6-.3-3.9-.1-.3-.2-.7-.3-1l-.3-.9c-.2-.6-.4-1.2-.5-1.9-.6-2.5-1.1-5-1.5-7.6-.2-1-.1-2.1.2-3.1.6.3 1.3.5 1.9.6.3.1.7.1 1 .1h1c1.3 0 2.5-.2 3.8-.3 5-.6 9.9-1.6 14.7-2.9 1.2-.4 2.4-.7 3.6-1.2 1.2-.4 2.4-1 3.5-1.7 2.2-1.3 4.2-2.8 6.1-4.4 1.9-1.6 3.8-3.2 5.6-5 .9-.9 1.8-1.8 2.6-2.8.4-.5.8-1 1.2-1.6.2.1.4.3.6.4.1 0 .1.1.2.1 5 1.4 9.9 2.9 14.2 5.5 4.3 2.5 7.7 6.2 9.6 10.7.4 1.1.8 2.3 1.1 3.5l.1.4v.4l.1.9.2 1.9c.3 2.6.5 5.1.7 7.7.3 4.7.5 9.4.5 14.1l-38.6.2c-13.2.2-26.6.4-40 .6zm4.7-30.4c-.3-.4-.4-.8-.4-1.1 0-.4.1-.7.3-1 .4-.5 1.2-.7 1.9-.6.7.1 1.5.5 1.8 1.1.2.3.2.6.1 1s-.4.7-.7 1.1c.4-.1.8-.4 1.1-.9.3-.4.3-1.1.1-1.6-.4-1-1.4-1.6-2.4-1.8-.5-.1-1-.1-1.5.1s-1 .5-1.2 1c-.2.4-.3 1-.2 1.5.3.6.7 1 1.1 1.2zM41 209.2c-.7-2.7-1.6-5.3-2.8-7.8-1.2-2.5-2.7-4.9-4.5-7-1.8-2.1-3.8-4.1-6.2-5.4 1.1.8 2.1 1.8 3 2.8 1 1 1.8 2 2.6 3.1 1.6 2.2 3 4.5 4.2 7 .6 1.2 1.2 2.4 1.6 3.7.5 1.2.9 2.6 1.4 3.8.4 1.3.7 2.6 1.1 3.9.3 1.3.6 2.7.9 4-.1-1.4-.3-2.7-.5-4.1-.2-1.3-.4-2.6-.8-4zm125.6-13.9c-1.8 1.9-3.3 4.1-4.5 6.4-1.2 2.3-2.2 4.8-3 7.3-.4 1.2-.6 2.5-1 3.8l-.6 3.9c.4-1.2.7-2.5 1.1-3.7.4-1.2.8-2.5 1.2-3.7.2-.6.5-1.2.7-1.8s.5-1.2.8-1.8c.5-1.2 1.1-2.3 1.7-3.5 1.2-2.2 2.6-4.4 4.2-6.4.8-1 1.7-1.9 2.6-2.9.9-.9 1.9-1.8 3-2.4-2.4 1.1-4.4 2.9-6.2 4.8z" fill="#184f58" stroke-width="none" opacity="1"></path></g><g id="svga-group-head" transform="matrix(1,0,0,1,0,0)"><g id="svga-group-ears-left-move" transform="matrix(1,0,0,1,0,0)"><g id="svga-group-ears-left"><path id="SvgjsPath10386" d="M62.2 95.2s-4.4-4.7-5.8-6.2-3.1-4.7-5-4.1c-1.9.5-1.2 2.7-1.3 5.8-.1 3.1.3 9.1 2.2 12.4s2.9 4.5 3.5 8 2.8 4.2 4.1 3.2 4.3-7 4.4-10.2c0-3.2-1.3-7.6-2.1-8.9z" fill="#a4582e" stroke-width="none" opacity="1"></path><path id="SvgjsPath10387" d="M63.1 97.3c.3.8.5 1.5.7 2.3.4 1.6.7 3.2.7 4.9 0 .8-.2 1.6-.3 2.3l-.6 2.1c-.5 1.3-1.1 2.6-1.7 3.8-.3.6-.7 1.1-1.1 1.7-.2.2-.5.5-.8.7s-.6.3-.9.3c-.7.1-1.4-.1-2-.7s-1.1-1.4-1.4-2.3l-.2-.7-.1-.7c-.1-.4-.1-.8-.2-1.1-.2-.7-.4-1.5-.6-2.1-.5-1.4-1.3-2.7-2.1-4-.4-.6-.8-1.4-1-2.2-.3-.8-.5-1.6-.7-2.4-.3-1.6-.6-3.2-.7-4.8-.2-1.6-.2-3.2-.2-4.7 0-.8-.1-1.5-.1-2.4 0-.4 0-.8.1-1.3.1-.4.2-.9.5-1.2.2-.3.5-.5.8-.6s.6-.2 1-.2c.7.1 1.3.5 1.9 1 1.1 1 1.9 2.4 2.7 3.5 1.9 2.2 3.7 4.4 5.6 6.5.1.8.4 1.6.7 2.3zm-7-7.9c-1.1-1-1.9-2.3-2.8-3.1-.5-.4-.9-.7-1.4-.8-.4 0-.9.1-1.2.4s-.4.9-.4 1.7v2.3c0 .8-.1 1.5-.1 2.3s0 1.5.1 2.3c.1 1.6.3 3.1.7 4.7.4 1.5 1 3 1.8 4.2.8 1.3 1.7 2.5 2.4 4 .3.8.6 1.6.8 2.4l.3 1.2.1.5.2.5c.2.6.6 1.1 1 1.4s.9.4 1.3.3c.2 0 .4-.1.6-.2.2-.1.3-.3.5-.5.3-.4.7-1 1-1.5.6-1.1 1.2-2.3 1.7-3.5s1-2.5 1.2-3.8c.2-1.4 0-3-.2-4.5-.1-.8-.3-1.6-.5-2.3-.2-.8-.5-1.5-.9-2.1-2.2-2.1-4.2-4-6.2-5.9z" fill="#95461b" stroke-width="none" opacity="1"></path><path id="SvgjsPath10388" d="M50.4 89.6c.5-1.9 2.1-1 3 .4 1.9 2.6 3.2 6.6 3.6 10 0 .1-.1.2-.1.1-.1.1-.2.1-.2-.1-1.2-.5-1.6-.2-1.2.8 0 .3.1.6.3.9.2.5.6 1 .9 1.5.5.8 1.2 1.5 1.7 2.3.2.3 0 .6-.2.4-1.4-1-3.9-4.3-3.2-6.6.3-.8 1-1.1 1.5-.7-1.1-3.6-4-12-5.8-8.8-.2.1-.3-.1-.3-.2z" fill="#85360b" stroke-width="none" opacity="1"></path><path id="SvgjsPath10389" d="M53.3 90.1c-1 2-1.4 4.4-.9 7.1.3 1.5 2.9 9.5 4.9 8.4.2-.1.4.3.2.5-2 1.8-4.2-4.5-4.9-6.5-1.1-3.4-1.4-7.5.5-9.7.1-.1.2 0 .2.2z" fill="#85360b" stroke-width="none" opacity="1"></path></g></g><g id="svga-group-ears-right-move" transform="matrix(1,0,0,1,0,0)"><g id="svga-group-ears-right"><path id="SvgjsPath10390" d="M138.08 95.16s4.4-4.7 5.8-6.2 3.1-4.7 5-4.1c1.9.5 1.2 2.7 1.3 5.8.1 3.1-.3 9.1-2.2 12.4s-2.9 4.5-3.5 8-2.8 4.2-4.1 3.2-4.3-7-4.4-10.2c0-3.2 1.3-7.6 2.1-8.9z" fill="#a4582e" stroke-width="none" opacity="1"></path><path id="SvgjsPath10391" d="M137.9 95.1c1.9-2 3.8-4.3 5.6-6.5.9-1 1.6-2.4 2.7-3.5.5-.5 1.2-1 1.9-1 .3 0 .7 0 1 .2.3.1.6.3.8.6.2.3.4.8.5 1.2.1.4.1.9.1 1.3 0 .8-.1 1.6-.1 2.4 0 1.5-.1 3.2-.2 4.7-.1 1.6-.4 3.2-.7 4.8-.2.8-.4 1.6-.7 2.4s-.6 1.5-1 2.2c-.7 1.3-1.5 2.7-2.1 4-.3.7-.5 1.4-.6 2.1-.1.4-.1.7-.2 1.1l-.1.7-.2.7c-.3.9-.8 1.7-1.4 2.3-.6.5-1.4.8-2 .7-.3 0-.6-.1-.9-.3-.3-.2-.6-.5-.8-.7-.4-.5-.8-1.1-1.1-1.7-.6-1.2-1.2-2.4-1.7-3.8-.2-.7-.5-1.4-.6-2.1-.2-.7-.3-1.5-.3-2.3 0-1.7.3-3.3.7-4.9.2-.8.4-1.6.7-2.3 0-.8.3-1.6.7-2.3zm.1.1c-.4.6-.6 1.4-.9 2.1-.2.8-.4 1.5-.5 2.3-.3 1.5-.4 3.1-.2 4.5s.7 2.6 1.2 3.8c.5 1.2 1.1 2.4 1.7 3.5.3.5.6 1.1 1 1.5.2.2.3.4.5.5s.4.2.6.2c.4.1.9 0 1.3-.3s.7-.8 1-1.4l.2-.5.1-.5.3-1.2c.2-.8.5-1.6.8-2.4.7-1.5 1.6-2.8 2.4-4 .8-1.2 1.4-2.6 1.8-4.2.4-1.5.6-3.1.7-4.7.1-.8.1-1.6.1-2.3 0-.8-.1-1.5-.1-2.3v-2.3c0-.7-.1-1.4-.4-1.7-.3-.3-.8-.5-1.2-.4-.4 0-.9.4-1.4.8-.9.8-1.8 2.1-2.8 3.1-2.3 2-4.3 3.9-6.2 5.9z" fill="#95461b" stroke-width="none" opacity="1"></path><path id="SvgjsPath10392" d="M149.6 89.6c-.5-1.9-2.1-1-3 .4-1.9 2.6-3.2 6.6-3.6 10 0 .1.1.2.1.1.1.1.2.1.2-.1 1.2-.5 1.6-.2 1.2.8 0 .3-.1.6-.3.9-.2.5-.6 1-.9 1.5-.5.8-1.2 1.5-1.7 2.3-.2.3 0 .6.2.4 1.4-1 3.9-4.3 3.2-6.6-.3-.8-1-1.1-1.5-.7 1.1-3.6 4-12 5.8-8.8.2.1.3-.1.3-.2z" fill="#85360b" stroke-width="none" opacity="1"></path><path id="SvgjsPath10393" d="M146.7 90.1c1 2 1.4 4.4.9 7.1-.3 1.5-2.9 9.5-4.9 8.4-.2-.1-.4.3-.2.5 2 1.8 4.2-4.5 4.9-6.5 1.1-3.4 1.4-7.5-.5-9.7-.1-.1-.2 0-.2.2z" fill="#85360b" stroke-width="none" opacity="1"></path></g></g><g id="svga-group-faceshape-wrap"><g id="svga-group-faceshape-single"><path id="SvgjsPath10476" d="M143.2 82v-.3c-1.3-29.9-20.7-46.4-43.2-46.4S58.1 51.7 56.8 81.7v.3c0 2 0 17.7 1.7 28.4 1.8 11.7 5.7 15.8 14.3 26.1s16.9 19.8 21.6 19.2c0 0 4.4-.9 5.6-.9s5.6.9 5.6.9c4.7.7 13.1-8.8 21.6-19.2s12.5-14.4 14.3-26.1c1.6-10.8 1.7-26.4 1.7-28.4z" fill="#a4582e" stroke-width="none" opacity="1"></path><path id="SvgjsPath10477" d="M105.6 155.7c4.7.7 13.1-8.8 21.6-19.2s12.5-14.4 14.3-26.1c1.6-10.8 1.7-26.4 1.7-28.4v-.3c-1.3-29.9-20.7-46.4-43.2-46.4S58.1 51.7 56.8 81.7v.3c0 2 0 17.7 1.7 28.4 1.8 11.7 5.7 15.8 14.3 26.1s16.9 19.8 21.6 19.2c0 0 4.4-.9 5.6-.9s5.6.9 5.6.9zm-10.5-2.9c-1.1.2-2.2.1-3.2-.5-2.9-1.6-5.8-5.1-7.1-6.5-3.2-3.4-6.3-6.1-9.4-9.8s-6.4-7.2-9.1-10.9c-2.8-3.7-4.7-7.8-5.7-12.3-1.1-4.5-1.7-9.3-2.1-14.1-.4-4.8-.7-9.6-.8-14.3-.2-9.5 1.8-19.1 6.7-27.3C69.1 49 76.9 43 85.5 40c13.2-4.2 22.5-1.8 26.9-.5 8.8 2.4 16.7 8.1 22.1 15.8s8.1 17.4 8.5 26.9c-.1 8.3-.6 16.7-1.9 24.9-.3 2.1-.7 4.1-1.2 6.1s-1.2 3.9-2 5.7c-1.6 3.6-4.1 6.8-6.8 9.9-1.3 1.6-8.2 9.5-8.2 9.5-2.7 3.1-5.4 5.4-8.2 8.3-1.4 1.5-5.7 5.5-6.5 5.9-2.1 1-4 .5-4 .5-1-.2-4.4-1.1-9.1-.2z" fill="#762a00" stroke-width="none" opacity="1"></path></g></g><g id="svga-group-mouth-single-move" transform="matrix(1,0,0,1,0,0)"><g id="svga-group-mouth-single"><path id="SvgjsPath10567" d="M85.34 126.92s2.37-.51 5.3-1.54c2.87-1.01 6.09-2.05 8.83-2.14 3.98-.13 6.69.33 9.92 1.61 4.77 1.89 7.89 2.17 7.89 2.17s-2.81 2.71-10.17 4.41c-7.36 1.7-14.09.36-17.26-1.47-3.17-1.83-4.51-3.04-4.51-3.04z" fill="#892f11" stroke-width="none" opacity="1" transform="translate(0 2)"></path><path id="SvgjsPath10568" d="M118.94 126.28c-.72.2-2.15 1.09-8.57.73-2.91-.16-5.81-.6-8.73-.65-2.85-.05-5.66.33-8.49.57-6.77.58-8.72-.58-9.3-.72-.16-.04-.27.19-.11.27 5.39 2.95 12.12.73 17.9.89 5.62.16 12.32 2.08 17.53-.92.27-.16.09-.26-.23-.17z" fill="#7a2103" stroke-width="none" opacity="1" transform="translate(0 2)"></path></g></g><g id="svga-group-eyes-left-move" transform="matrix(1,0,0,1,0,0)"><g id="svga-group-eyes-left"><g id="svga-group-eyesback-left"><path id="SvgjsPath10432" d="M90.4 96.5S89 94 86.9 92.3c-2.1-1.7-5.6-2.5-8.1-2.3-2.5.2-7.1 1.8-9.6 5.5 0 0 2.3 1.2 5.6 1.8 3.3.6 8.9 1.1 12 .4 3-.6 3.6-1.2 3.6-1.2z" fill="#ffffff" stroke-width="none" opacity="1"></path></g><g id="svga-group-eyesiriswrapper-left" transform="matrix(1,0,0,1,0,0)"><g id="svga-group-eyesiriscontrol-left" transform="matrix(1,0,0,1,0,0)"><g id="svga-group-eyesiris-left"><path id="SvgjsPath10512" d="M80.1 88.4c2.8 0 5.2 2.3 5.2 5.2s-2.3 5.2-5.2 5.2-5.2-2.3-5.2-5.2 2.3-5.2 5.2-5.2z" fill="#6b4b22" stroke-width="none" opacity="1"></path><path id="SvgjsPath10513" d="M80.1 90.8c1.5 0 2.8 1.2 2.8 2.8s-1.2 2.8-2.8 2.8-2.8-1.2-2.8-2.8 1.2-2.8 2.8-2.8z" fill="#000000" stroke-width="none" opacity="1"></path><path id="SvgjsPath10514" d="m79.4 91.3-.6-.6c-.2-.2-.4-.3-.7-.3-.2 0-.5.1-.7.3-.2.2-.3.4-.3.7s.1.5.3.7l.6.6c.2.2.4.3.7.3.2 0 .5-.1.7-.3.3-.5.4-1.1 0-1.4zm2.5 4.7c.9 0 .9-1.4 0-1.4s-.8 1.4 0 1.4z" fill="#ffffff" stroke-width="none" opacity="1"></path></g></g></g><g id="svga-group-eyesfront-left"><path id="SvgjsPath10440" d="M74.8 97.4c3.3.6 8.9 1.1 12 .4s3.6-1.3 3.6-1.3-1.4-2.5-3.5-4.2-5.6-2.5-8.1-2.3c-2.5.2-6.8 1.7-9.3 5.2v-.7c0-6.4 4.7-11.5 10.6-11.5s10.6 5.2 10.6 11.5S86 106 80.1 106c-5.5 0-10.1-4.6-10.6-10.5.6.5 2.6 1.4 5.3 1.9z" fill="#a4582e" stroke-width="none" opacity="1"></path><path id="SvgjsPath10441" d="M90.9 98c-3.6 2.6-8.4 4.1-12.9 3.7-.2 0-.2-.2 0-.2 4.7-.5 8.5-1.4 12.7-3.7.3-.2.4.1.2.2z" fill="#95461b" stroke-width="none" opacity="1"></path><path id="SvgjsPath10442" d="M69.2 95.7c5.5 4.1 15.4 3.7 21.5 1.5.3-.1.5-.5.3-.8-4.8-9.2-16.2-9.3-22-1-.1.1.1.3.2.3zm10.9 1.9c-3.7-.2-7-1.3-10.5-2.2 5.7-6.8 15.6-6.8 20.2.9-3.2 1.1-6.4 1.5-9.7 1.3z" fill="#000000" stroke-width="none" opacity="1"></path></g></g></g><g id="svga-group-eyes-right-move" transform="matrix(1,0,0,1,0,0)"><g id="svga-group-eyes-right"><g id="svga-group-eyesback-right"><path id="SvgjsPath10433" d="M109.6 96.5s1.4-2.5 3.5-4.2c2.1-1.7 5.6-2.5 8.1-2.3 2.5.2 7.1 1.8 9.6 5.5 0 0-2.3 1.2-5.6 1.8-3.3.6-8.9 1.1-12 .4-3-.6-3.6-1.2-3.6-1.2z" fill="#ffffff" stroke-width="none" opacity="1"></path></g><g id="svga-group-eyesiriswrapper-right" transform="matrix(1,0,0,1,0,0)"><g id="svga-group-eyesiriscontrol-right" transform="matrix(1,0,0,1,0,0)"><g id="svga-group-eyesiris-right"><path id="SvgjsPath10515" d="M119.9 88.4c2.8 0 5.2 2.3 5.2 5.2s-2.3 5.2-5.2 5.2-5.2-2.3-5.2-5.2 2.4-5.2 5.2-5.2z" fill="#6b4b22" stroke-width="none" opacity="1"></path><path id="SvgjsPath10516" d="M119.9 90.8c1.5 0 2.8 1.2 2.8 2.8s-1.2 2.8-2.8 2.8-2.8-1.2-2.8-2.8 1.3-2.8 2.8-2.8z" fill="#000000" stroke-width="none" opacity="1"></path><path id="SvgjsPath10517" d="m119.3 91.3-.6-.6c-.2-.2-.4-.3-.7-.3-.2 0-.5.1-.7.3-.2.2-.3.4-.3.7s.1.5.3.7l.6.6c.2.2.4.3.7.3.2 0 .5-.1.7-.3.3-.5.4-1.1 0-1.4zm2.5 4.7c.9 0 .9-1.4 0-1.4s-.9 1.4 0 1.4z" fill="#ffffff" stroke-width="none" opacity="1"></path></g></g></g><g id="svga-group-eyesfront-right"><path id="SvgjsPath10443" d="M125.2 97.4c-3.3.6-8.9 1.1-12 .4s-3.6-1.3-3.6-1.3 1.4-2.5 3.5-4.2 5.6-2.5 8.1-2.3c2.5.2 6.8 1.7 9.3 5.2v-.7c0-6.4-4.7-11.5-10.6-11.5s-10.6 5.2-10.6 11.5S114 106 119.9 106c5.5 0 10.1-4.6 10.6-10.5-.6.5-2.6 1.4-5.3 1.9z" fill="#a4582e" stroke-width="none" opacity="1"></path><path id="SvgjsPath10446" d="M109.1 98c3.6 2.6 8.4 4.1 12.9 3.7.2 0 .2-.2 0-.2-4.7-.5-8.5-1.4-12.7-3.7-.3-.2-.4.1-.2.2z" fill="#95461b" stroke-width="none" opacity="1"></path><path id="SvgjsPath10447" d="M131 95.4c-5.8-8.3-17.3-8.2-22 1-.2.3 0 .7.3.8 6.1 2.2 16 2.6 21.5-1.5.1 0 .3-.2.2-.3zm-20.8.9c4.6-7.7 14.5-7.7 20.2-.9-3.5.9-6.8 2-10.5 2.2-3.3.2-6.5-.2-9.7-1.3z" fill="#000000" stroke-width="none" opacity="1"></path></g></g></g><g id="svga-group-facehighlight-single"></g><g id="svga-group-eyebrows-left-move" transform="matrix(1,0,0,1,0,0)"><g id="svga-group-eyebrows-left-rotate" transform="matrix(1,1.7453292519943295e-9,-1.7453292519943295e-9,1,1.4775309864489827e-7,-1.3832654133238975e-7)"><g id="svga-group-eyebrows-left"><path id="SvgjsPath10354" d="M66 90.3s4.7-7.2 13.9-10.6c4.6-1.7 11.7-.6 12.4 1 .7 1.5-.2 2.5-.5 3.3s-2.7 1.7-6.2 1.1c-1.3-.2-8.3-2.1-9.3-1.9s-7.8 3.5-10.3 7.1z" fill="#2a232b" stroke-width="none" opacity="1"></path><path id="SvgjsPath10355" d="M76.8 82.6c1.1-.5 2.4-.7 3.6-1.1.1 0 .2.2.1.2-1.1.5-2.4 1.1-3.7 1-.1.1-.1 0 0-.1zm8.4-2.1c.1-.1.2 0 .2.1-.5.8-1.2 1.2-2 1.5-1.3.5-2.7 1-4.1 1.2-.1 0-.2-.2-.1-.2 1.9-1 4.7-.9 6-2.6zm-1.9 3.3c1.2-.3 2.4-.4 3.5-.9s2.1-1.3 2.9-2.2c.1-.1.3 0 .2.2-1.2 2.2-4.1 3.6-6.6 3.2-.1-.1-.1-.3 0-.3zm3.4.3c.9-.3 1.7-.5 2.5-1s1.7-1.3 1.8-2.4c0-.2.3-.1.3 0-.1 2-2.8 3.9-4.7 3.6-.1 0 0-.2.1-.2zm-13-.2c.6-.8 1.7-1.3 2.5-1.7.1-.1.2.1.1.2-.8.5-1.7 1.2-2.6 1.7 0 0-.1-.1 0-.2z" fill="#3a353a" stroke-width="none" opacity="1"></path><path id="SvgjsPath10356" d="M65.7 90.7c.1.1.1.1.2 0 .8-.8 1.5-1.7 2.4-2.5.8-.8 1.8-1.3 2.7-1.9 1.8-1.2 3.4-2.3 5.5-3.1 4.2.3 17.5 6.1 16.3-2.5v-.2c0-.2-.2-.2-.3 0v.1c-.1-.5-.4-1-.9-1.1-.1 0-.1 0-.1.1l.1.1c-.5-.4-1.4-.7-1.9-.6-4.1-1.5-9.8.3-13.5 1.9-4.3 2-8.1 5.2-10.4 9.4-.2.2-.2.3-.1.3zm2.3-2.8c5.4-5.9 14.5-11.2 22.2-8.1.1 0 .2-.1.2-.1.1 0 .1 0 .2.1.5.2.8.5 1 1 .1.1.2 0 .2-.1 0-.2 0-.3-.1-.5l.1.1c.2.3.3.6.2 1-.1.1-.2.2-.2.3 0 .1 0 .1.1.1.2.1.4-.2.6-.3-.5 7.3-12.6.8-16.4 1.6 0 0-.1 0-.1.1-2.1.4-3.8 1.9-5.6 3.1-.9.5-1.7 1.1-2.4 1.7z" fill="#1b141c" stroke-width="none" opacity="1"></path></g></g></g><g id="svga-group-eyebrows-right-move" transform="matrix(1,0,0,1,0,0)"><g id="svga-group-eyebrows-right-rotate" transform="matrix(1,1.7453292519943295e-9,-1.7453292519943295e-9,1,1.4788722069170035e-7,-2.1103144831613463e-7)"><g id="svga-group-eyebrows-right"><path id="SvgjsPath10357" d="M134 90.3s-4.7-7.2-13.9-10.6c-4.6-1.7-11.7-.6-12.4 1-.7 1.5.2 2.5.5 3.3s2.7 1.7 6.2 1.1c1.3-.2 8.3-2.1 9.3-1.9s7.8 3.5 10.3 7.1z" fill="#2a232b" stroke-width="none" opacity="1"></path><path id="SvgjsPath10358" d="M123.2 82.6c-1.1-.5-2.4-.7-3.6-1.1-.1 0-.2.2-.1.2 1.1.5 2.4 1.1 3.7 1 .1.1.1 0 0-.1zm-8.4-2.1c-.1-.1-.2 0-.2.1.5.8 1.2 1.2 2 1.5 1.3.5 2.7 1 4.1 1.2.1 0 .2-.2.1-.2-1.9-1-4.7-.9-6-2.6zm1.9 3.3c-1.2-.3-2.4-.4-3.5-.9s-2.1-1.3-2.9-2.2c-.1-.1-.3 0-.2.2 1.2 2.2 4.1 3.6 6.6 3.2.1-.1.1-.3 0-.3zm-3.4.3c-.9-.3-1.7-.5-2.5-1s-1.7-1.3-1.8-2.4c0-.2-.3-.1-.3 0 .1 2 2.8 3.9 4.7 3.6.1 0 0-.2-.1-.2zm13-.2c-.6-.8-1.7-1.3-2.5-1.7-.1-.1-.2.1-.1.2.8.5 1.7 1.2 2.6 1.7 0 0 .1-.1 0-.2z" fill="#3a353a" stroke-width="none" opacity="1"></path><path id="SvgjsPath10359" d="M134.4 90.5c-2.3-4.2-6.1-7.4-10.4-9.4-3.7-1.7-9.4-3.4-13.5-1.9-.5-.1-1.4.1-1.9.6l.1-.1c0-.1-.1-.1-.1-.1-.5.1-.8.6-.9 1.1v-.1c0-.2-.3-.1-.3 0v.2c-1.2 8.6 12.2 2.8 16.3 2.5 2 .8 3.7 1.9 5.5 3.1.9.6 1.9 1.1 2.7 1.9.8.8 1.5 1.7 2.4 2.5.1.1.2 0 .2 0-.1-.1-.1-.2-.1-.3zm-4.8-4.3c-1.8-1.1-3.5-2.6-5.6-3.1 0 0 0-.1-.1-.1-3.8-.8-15.9 5.7-16.3-1.7.1.2.3.4.6.3.1 0 .1-.1.1-.1 0-.1-.1-.2-.2-.3-.1-.4 0-.7.2-1l.1-.1c-.1.2-.1.3-.1.5 0 .1.2.2.2.1.2-.5.5-.8 1-1 .1 0 .1 0 .2-.1 0 .1.1.2.2.1 7.8-3.1 16.8 2.2 22.3 8.1-.9-.5-1.7-1.1-2.6-1.6z" fill="#1b141c" stroke-width="none" opacity="1"></path></g></g></g><g id="svga-group-beardwrap"><g id="svga-group-beard-single-move" transform="matrix(1,0,0,1,0,0)"><g id="svga-group-beard-single"><path id="SvgjsPath10623" d="M83.9 145.3c.7 3.5 3.2 7.2 4.9 9.4 2 2.5 7.1 3.1 7.1 3.1v-.8s.1.8 2.4 1.3 4.6-.1 4.6-.1l1.7-1.4-.1 1.1s2.1-.1 3.7-1.1v1.1s2.7-1.6 5-6.3c2.4-4.7 3.7-5.6 2-8.3-2-3-31.1-5.2-31.3 2z" fill="#2a232b" stroke-width="none" opacity="1"></path><path id="SvgjsPath10624" d="M90.4 155c-.6-1-1-2.1-1.6-3.1-.1-.1-.3-.1-.3.1.2.7.5 1.4.9 2-.8-.7-1.5-1.5-2.1-2.4-1.6-2.3-2.3-4.9-3-7.5-.1-.2-.3-.1-.3 0 0 5.2 4 11.6 9 13.4.2.1.4-.2.2-.4-1-.7-1.9-1.3-2.8-2.1zm6.1.6c-.1-.2-.4-.1-.3.1.1.8.3 1.5.7 2.3-1.9-2.2-3.6-4.4-4.7-7.2-.1-.2-.3-.1-.3.1.6 2.4 1.8 4.8 3.5 6.7-.7-.3-1.4-.6-2-1.2-.8-.7-1.6-1.5-2.3-2.3-.1-.1-.4.1-.3.2 1.2 1.7 3 4.2 5.3 4 .4.4.9.8 1.4 1.1 0 .1.1.1.1.2.1.2.5 0 .4-.2-.5-1.2-.9-2.6-1.5-3.8zm1.4 1.5c-.2-.3-.6 0-.4.3.4.7 1 1.4 1.8 1.6.2 0 .3-.2.2-.3-.6-.6-1.2-1-1.6-1.6zm-9.8-7.1c.2.2.5-.1.4-.4-1.3-1.8-2.4-3.4-3.2-5.5-.1-.2-.4-.1-.4.1.3 2.2 1.4 4.5 3.2 5.8zm.5-1.5c.3 1 .9 2.3 1.9 2.7.2.1.4-.2.3-.4-.3-.4-.7-.7-1-1.1-.3-.4-.6-.9-.8-1.4 0-.2-.4-.1-.4.2zm13.3 7.1c-.3 1-.5 2-.9 2.9-.1.1.1.3.2.1.6-.9 1-1.9 1-3 0-.2-.3-.2-.3 0zm2-2.3c-.7 1.8-1.3 3.5-2.4 5.1-.1.2.2.4.3.3 1.3-1.4 2.5-3.3 2.6-5.2.1-.5-.4-.5-.5-.2zm.7 1.8c-.3.4-.5 1-.7 1.5-.3.5-.5.9-.9 1.4-.2.2.2.5.4.3.8-.8 1.7-1.9 1.8-3-.1-.4-.5-.4-.6-.2zm1.8.1c-.4.3-.7.8-1 1.2-.4.4-.8.8-1.2 1.1-.3.2 0 .8.3.5.5-.3 1-.7 1.4-1.2.4-.4.8-.9.9-1.5.1-.1-.2-.2-.4-.1zm5.3-6.2c.1-.3-.4-.6-.6-.2-1.4 3-2.5 6.5-5.2 8.6-.2.2.1.5.3.4 3-1.6 4.9-5.8 5.5-8.8zm1.3.4c-1.6 2.4-2.6 5.1-4.4 7.3.1-.2.1-.4.2-.6 0-.2-.2-.3-.4-.1-.3.5-.5 1.1-.7 1.6v.1c0 .2.2.4.3.2 2.7-1.9 4.3-5.3 5.3-8.4.1-.2-.2-.3-.3-.1zm2.1-5.8c0-.4-.6-.4-.6 0-.2 3.4-.8 6.6-2.5 9.6-.1.2.2.3.2.1 1.9-2.8 3.1-6.2 2.9-9.7zm-20.4 7.7c-1.5-2.4-2.8-4.5-3.4-7.3-.1-.4-.8-.2-.7.2.5 2.7 1.6 5.6 3.6 7.5.2.2.6-.1.5-.4zm2.5 3c-1.1-2.2-2.4-4.2-3.4-6.4-.1-.2-.3-.1-.3.1.7 2.3 1.7 4.8 3.3 6.6.3.2.6 0 .4-.3zm1.2.5c-.1-.2-.2-.4-.2-.6-.1-.2-.1-.5-.2-.7-.1-.2-.1-.4-.2-.6-.2-.7-.2-1.3-.4-2-.1-.2-.4-.2-.4.1-.1 1.4.5 2.8 1.1 4 .1.1.4 0 .3-.2zm-8.9-9.1c-.4-1-1-2-1.4-3.1-.1-.1-.3-.1-.2.1.3 1.1.7 2.2 1.4 3.1 0 .1.3.1.2-.1zm11.5 10.2c.2-1.3.3-2.6.4-3.9 0-.1-.1-.1-.1 0-.1 1.3-.4 2.6-.4 3.9h.1zm-.7-1.5c0-.2-.4-.2-.4 0-.3.8-.3 1.8-.4 2.7-.4-.6-.8-1.2-1.2-1.9-.1-.1-.3 0-.2.1 0 .1.1.3.1.4 0 .1.1.2.1.3v.1c0 .1.1.1.1.2.3.8.8 1.6 1.5 2.1.1.1.3 0 .2-.2-.1-.3-.3-.6-.5-.8.5-.9.9-2 .7-3zm3.1-4.3c.4-1.6.5-3.3.6-5 0-.5-.7-.5-.7 0-.1 1.6-.3 3.3-.4 4.9 0 .4.5.4.5.1zm1.7 3.2c.8-1.7 1.2-3.7 1.4-5.6 0-.2-.4-.2-.4 0-.2 1.9-.7 3.6-1.3 5.4 0 .2.3.3.3.2zm3.8-3.1c.7-2 .9-4.2.7-6.4 0-.2-.3-.2-.3 0 .1 2.1-.3 4.2-.7 6.3 0 .2.3.3.3.1zM98.5 146c0-.7-.2-1.4-.2-2.1 0-.2-.3-.1-.3 0 .1.7.1 1.5.3 2.1 0 .1.2.1.2 0zm-1.9 1.2c0-1.6-.3-3.1-.2-4.7 0-.3-.4-.3-.4 0 0 1.6-.1 3.2.3 4.7 0 .3.3.3.3 0zm4.6 9.5c-.1-.2-.4-.2-.4 0-.2.6-.3 1.3-.3 1.9 0 .2.3.3.4.1.2-.6.4-1.4.3-2z" fill="#1b141c" stroke-width="none" opacity="1"></path></g></g></g><g id="svga-group-mustache-single-move" transform="matrix(1,0,0,1,0,0)"><g id="svga-group-mustache-single"></g></g><g id="svga-group-nose-single-move" transform="matrix(1,0,0,1,0,0)"><g id="svga-group-nose-single"><path id="SvgjsPath10547" d="M107.41 107.88c1.55 1.26 2.35 2.79 2.47 4.02s-.64 2.35-1.59 2.87c-.96.52-2.59.2-3.74-1.23 0 0-2.31 1.63-3.11 1.83-.8.2-4.67-1-5.74-1.77 0 0-.83 1.53-2.78 1.13s-2.91-2.31-2.43-3.78c.48-1.47 1.59-2.59 2.19-3.07.6-.48 2.63-1.91 4.34-2.39s5.45-1.63 10.39 2.39z" fill="#a4582e" stroke-width="none" opacity="1" transform="translate(0 1)"></path><path id="SvgjsPath10548" d="M107.51 107.59c-.16-.15-.45-.01-.38.22.43 1.36 1.79 2.15 2.25 3.5.32.95.04 2.1-.72 2.76-1.18 1.03-2.63.6-3.71-.28-.05-.04-.11-.04-.17-.02.44-.2.91-.34 1.45-.33.26 0 .32-.33.13-.46-1.65-1.14-2.99.87-4.3 1.57-2.67 1.45-4.99-1.78-7.65-1.6-.21.01-.25.3-.05.37.33.12.65.26.98.42-.46.21-.9.47-1.39.56-1.14.22-2.29-.32-2.87-1.31-1.27-2.13.63-3.92 1.98-5.32.09-.1-.02-.25-.14-.19-2.11 1.14-3.89 4.02-2.26 6.26 1.09 1.49 4.17 2.16 5.13.21 1.52.76 3.06 1.73 4.69 1.82 1.79.09 2.83-1.29 4.24-1.97-.06.04-.08.12-.03.2 1.25 1.82 4 1.58 5.12-.24 1.41-2.29-.66-4.66-2.3-6.17z" fill="#762a00" stroke-width="none" opacity="1" transform="translate(0 1)"></path><path id="SvgjsPath10549" d="M94.75 106.69c1.2-.53 2.39-1 3.69-1.22 1.29-.22 2.56-.08 3.86-.15.16-.01.18-.22.04-.27-1.59-.58-3.53-.4-5.25.2 1.56-2.44 2.21-5.68 1.65-8.5-.04-.2-.33-.14-.34.05-.11 3.13-.66 5.77-1.83 8.65-.71.29-1.37.63-1.94 1.03-.14.09-.03.27.12.21z" fill="#762a00" stroke-width="none" opacity="1" transform="translate(0 1)"></path><path id="SvgjsPath10550" d="M105.64 107.55c-2.17-2.46-6.64-2.22-8.92-.1-.27.25-.16.8.23.87 1.18.21 2.31.1 3.5.12 1.43.03 2.34.52 3.46 1.36 1.36 1.02 2.74-1.1 1.73-2.25z" fill="#ac6239" stroke-width="none" opacity="1" transform="translate(0 1)"></path></g></g><g id="svga-group-hair-front"><path id="SvgjsPath10863" d="M55.5 85.1s3.2 7.7 4.5 7.8c0 0 .1-5.2.4-8.8s.7-12.8 8.1-21.6 12.9-11.7 12.9-11.7S91 57 97.5 57.3s16.9.1 25.8-6.7c0 0 6.7 7.4 10 16.1s5.4 16.8 5.5 22.7.6 6.4 2.8 3.8 2.8-8 2.8-8 .1-12.4-2.3-19.4-5.4-15.4-13.7-21.8-16.2-9.1-21.7-10c-5.5-1-15.8-.3-23.8 2.9S67.8 45.3 63 53s-7 16.6-7.3 23.6-.2 8.5-.2 8.5z" fill="#2a232b" stroke-width="none" opacity="1"></path><path id="SvgjsPath10864" d="M135.7 50.7C128.4 40.5 115 33.6 102.5 33c-13.7-.7-28.7 5.2-37.3 16-8.2 10.2-11 23.7-10 36.6 0 .2.1.3.2.3.2.7.5 1.3.8 2.1.4 1 .8 2 1.3 3 .5 1.2 1.4 2.8 2.9 2.4.4 0 .8-.3.8-.8 0-8.1.3-16.9 4.2-24.1 3.8-7 10.2-12 16.3-17 5.5 4.7 13.2 7 20.2 7.1 7.1.1 16.4-2.1 21.6-7.4 9 12.9 14.9 26.6 14.7 42.6 0 .2.1.3.2.4.2 2 2.9.8 3.7-.3 1.4-1.9 1.6-4.5 2.1-6.9.3-.1.5-.3.5-.7 1-12.2-1.8-25.6-9-35.6zm3.9 43c.3-15.2-4.8-32-15.4-43.2l.1-.1c.4-.5-.1-1.1-.6-.8-3.6 1.7-6.5 4-10.3 5.4-3.7 1.3-7.6 2-11.4 1.9-8.2-.1-14.8-3.5-21.6-7.7-.3-.2-.7.3-.4.6.2.3.5.5.8.8-6.5 5-13.3 10.3-17 17.8-3.6 7-4 15.4-4.1 23.2-1.6-1.8-1.9-4.9-3.7-6.5-.6-12 2-24.4 9.2-34.1 8.4-11.3 23.5-17.3 37.4-16.6 12.8.7 26.7 8.5 33.4 19.4 5.9 9.6 8.2 21.5 7.5 32.7-.5.8-.8 1.8-1.1 2.9-.3.8-1.2 4.5-2.8 4.3zM91.8 52.6C86.7 50.1 83 47 80 42.1c-.2-.3-.7-.1-.6.2 1.7 5.2 6.6 9.8 12.1 10.8.4.1.7-.3.3-.5zm5.5-.2c-3.1-.9-6-2.2-8.3-4.5-.3-.3-.8.2-.5.5 2.3 2.6 5.3 4.3 8.8 4.5.2.1.3-.4 0-.5zm9.4-.3c-1.7-.2-3.2-.4-4.8-1-.3-.1-.5.4-.2.5 1.5.6 3.3 1 4.9.9.4 0 .4-.4.1-.4zm-31.5 1.5c-1.5-.4-2.6-1.2-3.8-2.1-.3-.2-.6.2-.4.5 1 1.2 2.6 1.8 4.1 2 .3.1.4-.4.1-.4zm-3.6 2.5c-.6-.2-1.2-.6-1.8-.7-.2 0-.4.2-.2.3.5.4 1.1.6 1.7.8.3.3.6-.2.3-.4zm62.6 1.5c.1-.3-.2-.6-.5-.5-.4.1-.8.4-1.3.5-.5.1-1 .1-1.4 0-.6-.2-.8.7-.3 1 1.1.4 3 .3 3.5-1zm.5 3.3c-.5 0-1.1.2-1.6.3-.3.1-.2.6.1.5.5-.1 1.1-.2 1.5-.5.3-.1.2-.3 0-.3zm3.9 7.9c-.5 0-.9.2-1.3.5-.5.2-.1 1 .4.7.4-.2.8-.4 1.1-.8.2-.2 0-.4-.2-.4z" fill="#1b141c" stroke-width="none" opacity="1"></path><path id="SvgjsPath10865" d="M101 48.2c-4.7-1.2-8.7-3.4-11.6-7.3-.2-.3-.7 0-.5.3 2.8 4 7 7 12 7.4.3 0 .3-.3.1-.4zm-13.8-3.7c-1.7-1.2-3.1-2.2-3.9-4.2-.1-.3-.5-.2-.4.1.6 1.9 2.1 4 4.2 4.5.2.1.3-.2.1-.4zm9.7 4.8c-1.6-.8-3.2-1.5-4.6-2.5-.1-.1-.3.1-.2.2 1.4 1.1 3 2.2 4.7 2.6.2.1.4-.2.1-.3zm11.9 5.2c-2.6.4-4.9.6-7.5.1-.2 0-.3.3-.1.4 2.5.6 5.2.8 7.7 0 .2-.2.1-.5-.1-.5zm8.2-7.2c-3.8 1-7.7 2.2-11.7 1.5-.2 0-.3.3-.1.3 4.1 1 8 0 11.9-1.5.2-.1.1-.4-.1-.3zm-9.7-4c-2.2-.3-4.3-.5-6.5-1.2-.3-.1-.4.3-.1.4 2.1.8 4.3 1.3 6.6 1.1.2 0 .2-.3 0-.3zm-31.7 8.2c-1.5-.9-2.9-1.8-4.1-3-.2-.2-.4.1-.2.2 1.1 1.3 2.6 2.5 4.2 3.1.2.1.3-.2.1-.3zM68.7 56c-1.2-.9-2.6-1.6-3.8-2.6-.2-.2-.6.1-.4.4 1.2 1 2.5 2.1 4.1 2.6.2.1.3-.2.1-.4zm-2.4 2.4c-.7-.5-1.6-.7-2.4-1.1-.3-.1-.6.3-.3.5.8.4 1.6.8 2.5 1 .3.1.4-.3.2-.4zm-3.5 4c-.3-.4-.7-.8-1.1-1.1-.2-.2-.6.1-.4.4.4.4.7.7 1.1 1 .3.2.6 0 .4-.3zm69.2-8.8c-.8.5-1.5.9-2.5.8-.3 0-.3.5 0 .5 1 .1 2.1-.2 2.8-1 .2-.1-.1-.4-.3-.3zm6.3 8.5c-.6-.2-1.2-.1-1.8-.1-.4 0-.4.6 0 .6.6 0 1.2.1 1.8-.1.2 0 .2-.3 0-.4zm-.1 3.7c-.5-.1-1-.1-1.5-.1-.3 0-.3.5 0 .5.5 0 1 0 1.5-.1.3.1.3-.2 0-.3zM98.8 35.2c-4.8-.5-10.2-.7-14.5 2-.2.1-.1.6.2.5 4.7-2 9.3-1.9 14.3-2 .3 0 .3-.5 0-.5zm36.3 17.7c-.1-.2-.4 0-.3.2 4.6 8.4 7.2 17.1 8.7 26.5 0 .3.5.2.5-.1-.7-9.5-4-18.5-8.9-26.6z" fill="#3a353a" stroke-width="none" opacity="1"></path></g><g id="svga-group-glasses-single-move" transform="matrix(1,0,0,1,0,0)"><g id="svga-group-glasses-single"></g></g></g></g></g><rect id="svga-credit-rect" width="200" height="15" x="0" y="185" fill="#ecf0f1" opacity="0.5" style="display: none;"></rect><text id="svga-credit-text" font-family="Avenir Next, Roboto, Helvetica, Arial, sans-serif" font-size="10px" text-anchor="start" font-weight="400" size="10px" anchor="start" weight="400" fill="#333333" x="33.40447998046875" y="182.60824704170227" style="display: none;"><tspan id="SvgjsTspan10343" dy="13" x="33.40447998046875">Created on AvatarMaker.com</tspan></text></g><defs id="SvgjsDefs10290"></defs></svg>